<svg version="1.1" id="Layer_1" xmlns="http://www.w3.org/2000/svg" xmlns:xlink="http://www.w3.org/1999/xlink" x="0px" y="0px"
	 width="100%" viewBox="0 0 339 152" enable-background="new 0 0 339 152" xml:space="preserve">
<path fill="#010101" opacity="1.000000" stroke="none" 
	d="
M216.000000,153.000000 
	C144.000015,153.000000 72.500015,153.000000 1.000019,153.000000 
	C1.000013,102.333351 1.000013,51.666695 1.000006,1.000033 
	C113.999969,1.000022 226.999939,1.000022 339.999939,1.000011 
	C339.999939,51.666630 339.999939,102.333260 339.999969,152.999939 
	C298.833344,153.000000 257.666656,153.000000 216.000000,153.000000 
M265.757935,25.031116 
	C263.169159,24.043928 260.580353,23.056740 257.206970,21.821526 
	C253.383240,21.455090 249.330063,18.828238 246.000000,22.996395 
	C246.000000,22.996395 245.958817,22.971069 245.237930,22.746029 
	C241.513168,32.502754 237.788406,42.259480 233.633057,52.566231 
	C229.466095,61.054878 225.299118,69.543526 220.653412,78.655670 
	C219.857803,80.462364 218.848267,82.216408 218.383606,84.104553 
	C218.222794,84.757904 219.415482,85.744347 219.701370,86.830193 
	C219.622864,87.143112 219.739624,87.339905 218.871689,87.073364 
	C217.683121,91.347572 218.021317,92.787956 220.440140,94.572258 
	C220.632294,95.194206 220.824448,95.816147 220.170654,95.767670 
	C220.278015,99.114082 220.239502,102.473488 220.536087,105.803047 
	C220.802155,108.789909 222.412933,109.869347 225.256470,108.289886 
	C227.834488,106.857925 230.413651,105.428040 233.402557,103.852646 
	C233.661987,103.704231 233.860764,103.497490 234.466339,103.096222 
	C234.466339,103.096222 234.937958,102.975136 235.649582,102.987221 
	C237.106964,102.100845 238.564346,101.214470 240.540970,99.856674 
	C246.838562,96.452095 247.364273,89.529938 250.829224,83.863541 
	C251.232773,82.946815 251.636307,82.030090 252.187958,80.381187 
	C256.091064,71.586891 259.994171,62.792595 264.293427,53.366055 
	C265.865936,49.738472 267.498383,46.134342 268.938354,42.454880 
	C269.127289,41.972031 268.330231,41.103291 268.446686,40.221302 
	C268.802307,39.497356 269.157928,38.773411 270.234772,38.732857 
	C273.174164,34.111469 272.869232,31.470905 268.868225,28.092993 
	C268.430756,27.720751 267.993317,27.348509 267.424774,26.251726 
	C266.995575,26.021366 266.566406,25.791006 265.757935,25.031116 
M127.118721,64.203987 
	C125.625671,59.793266 124.248444,55.337540 122.563416,51.001423 
	C122.104866,49.821430 120.718933,49.001820 119.758621,48.016815 
	C119.183556,49.198906 118.256737,50.336517 118.100555,51.571571 
	C117.663040,55.031563 117.483353,58.528801 117.310753,62.016731 
	C116.866943,70.985176 116.403343,79.954605 116.184891,88.929420 
	C116.160835,89.917542 117.676086,90.943138 118.477409,91.951355 
	C118.736526,90.820435 119.167809,89.698547 119.227745,88.557167 
	C119.740791,78.785881 120.186584,69.011078 120.652489,59.237320 
	C121.088974,59.217022 121.525459,59.196728 121.961945,59.176430 
	C122.723557,61.492252 123.410240,63.835979 124.260475,66.118797 
	C127.102966,73.750671 129.904724,81.401283 132.982513,88.938370 
	C133.481903,90.161293 135.304413,90.843918 136.515335,91.776276 
	C137.042038,90.349266 138.023148,88.921753 138.021545,87.495338 
	C138.011292,78.363121 137.858719,69.229042 137.598267,60.099995 
	C137.473129,55.714268 137.010147,51.338173 136.700165,46.957718 
	C136.108627,46.844727 135.517090,46.731735 134.925537,46.618744 
	C134.511826,48.619644 133.776321,50.614887 133.741028,52.622440 
	C133.600769,60.602226 133.705444,68.586136 133.619263,76.567444 
	C133.613251,77.122780 132.790833,77.669296 131.841125,78.850334 
	C130.208298,73.764473 128.795135,69.362839 127.118721,64.203987 
M143.550339,66.045555 
	C142.683380,74.671181 143.588104,82.771706 151.182083,88.422722 
	C155.523743,91.653549 160.077011,90.820076 161.821777,85.927498 
	C166.085876,73.970306 165.423416,62.062744 158.897842,50.983425 
	C156.393768,46.731934 152.551773,46.561939 149.913483,50.784733 
	C147.174408,55.168858 145.717361,60.353966 143.550339,66.045555 
M87.113441,79.738037 
	C88.877228,90.130180 88.877228,90.130180 92.489906,90.952751 
	C89.744041,76.803375 87.142151,63.172318 84.370293,49.575909 
	C84.168510,48.586124 82.733673,47.847710 81.872116,46.992424 
	C81.251541,47.972961 80.258186,48.886223 80.067230,49.944298 
	C77.798187,62.517010 75.630402,75.108200 73.496315,87.704758 
	C73.283882,88.958664 73.467865,90.279732 73.467865,91.569633 
	C74.167992,91.700729 74.868118,91.831818 75.568245,91.962914 
	C77.174728,85.965744 78.781219,79.968582 80.335106,74.167786 
	C82.464554,74.167786 84.243683,74.167786 85.971298,74.167786 
	C86.349831,75.932976 86.663773,77.396973 87.113441,79.738037 
M60.120899,71.929985 
	C65.923904,68.419022 68.724472,63.324505 68.058342,56.519199 
	C67.470245,50.511047 63.277073,48.049934 58.176575,45.985645 
	C54.280125,44.408661 52.811951,45.592243 52.734875,49.219723 
	C52.601280,55.507179 52.773258,61.800751 52.787754,68.091827 
	C52.805157,75.641708 52.791866,83.191666 52.791866,90.741585 
	C54.139713,90.156357 55.067440,89.077217 55.190208,87.913170 
	C55.555050,84.453728 55.788097,80.957100 55.717068,77.482277 
	C55.659321,74.657204 56.330048,72.693665 60.120899,71.929985 
M193.224121,53.758678 
	C192.933472,64.229630 192.559265,74.699150 192.379532,85.172012 
	C192.244110,93.063362 192.356476,93.123383 200.145462,92.928047 
	C202.021774,92.880989 203.884918,92.309296 205.754120,91.978874 
	C205.645676,91.310226 205.537247,90.641579 205.428802,89.972931 
	C202.243256,89.972931 199.057709,89.972931 196.033936,89.972931 
	C196.033936,84.001801 196.033936,78.721596 196.033936,73.405113 
	C198.518127,73.082138 200.767975,72.789635 203.017807,72.497124 
	C203.030960,71.949684 203.044098,71.402237 203.057251,70.854797 
	C200.703156,70.404167 198.349075,69.953537 195.814453,69.468353 
	C196.205643,62.971001 196.591293,56.565681 196.959686,50.446922 
	C200.443542,49.964680 203.352982,49.561947 206.262436,49.159214 
	C206.177933,48.708260 206.093445,48.257301 206.008942,47.806347 
	C197.332458,45.143562 194.056824,46.441769 193.224121,53.758678 
M187.243134,50.053921 
	C187.001709,49.315216 186.790390,47.944374 186.514389,47.931225 
	C181.087555,47.672802 175.653397,47.547855 170.219879,47.507465 
	C169.934296,47.505341 169.641342,48.493610 169.049423,49.571445 
	C171.407944,49.889656 173.271698,50.141113 175.330460,50.418880 
	C174.852448,64.633034 175.717682,78.650085 176.442429,92.676003 
	C177.168121,92.662621 177.893829,92.649246 178.619537,92.635864 
	C178.619537,78.530830 178.619537,64.425804 178.619537,50.139477 
	C181.716202,50.303062 184.173981,50.432899 187.243134,50.053921 
M197.088348,112.124321 
	C195.605194,108.427727 193.117355,110.855453 191.313599,111.453827 
	C187.706146,112.650543 184.272919,114.372452 182.023285,115.338409 
	C180.488907,112.177902 179.940109,109.041702 178.091888,107.713058 
	C175.354324,105.745117 169.309814,108.343117 166.922592,112.071030 
	C170.721802,111.070023 174.084000,110.184166 178.023941,109.146072 
	C178.023941,110.849709 178.142670,111.798920 178.004700,112.709221 
	C177.105362,118.642982 177.931381,119.385452 183.832840,117.270355 
	C187.201324,116.063087 190.417450,114.430664 194.049652,112.837227 
	C194.049652,114.083275 194.072159,114.713081 194.046173,115.340889 
	C193.800751,121.271179 195.736801,122.836319 201.114792,120.538895 
	C204.645798,119.030464 207.907120,116.890755 211.289215,115.033752 
	C211.016739,114.497246 210.744263,113.960732 210.471786,113.424217 
	C207.942535,114.637741 205.466949,115.986427 202.866043,117.019547 
	C200.979553,117.768890 198.927032,118.100288 196.948532,118.618050 
	C197.001480,116.742249 197.054413,114.866447 197.088348,112.124321 
M108.008102,75.983536 
	C104.287033,75.983536 100.565971,75.983536 96.844902,75.983536 
	C96.862556,76.878998 96.880211,77.774452 96.897873,78.669914 
	C101.128090,78.669914 105.358315,78.669914 109.588539,78.669914 
	C109.354568,77.757355 109.120590,76.844803 108.008102,75.983536 
z"/>
<path fill="#E2E2E2" opacity="1.000000" stroke="none" 
	d="
M127.250351,64.582596 
	C128.795135,69.362839 130.208298,73.764473 131.841125,78.850334 
	C132.790833,77.669296 133.613251,77.122780 133.619263,76.567444 
	C133.705444,68.586136 133.600769,60.602226 133.741028,52.622440 
	C133.776321,50.614887 134.511826,48.619644 134.925537,46.618744 
	C135.517090,46.731735 136.108627,46.844727 136.700165,46.957718 
	C137.010147,51.338173 137.473129,55.714268 137.598267,60.099995 
	C137.858719,69.229042 138.011292,78.363121 138.021545,87.495338 
	C138.023148,88.921753 137.042038,90.349266 136.515335,91.776276 
	C135.304413,90.843918 133.481903,90.161293 132.982513,88.938370 
	C129.904724,81.401283 127.102966,73.750671 124.260475,66.118797 
	C123.410240,63.835979 122.723557,61.492252 121.961945,59.176430 
	C121.525459,59.196728 121.088974,59.217022 120.652489,59.237320 
	C120.186584,69.011078 119.740791,78.785881 119.227745,88.557167 
	C119.167809,89.698547 118.736526,90.820435 118.477409,91.951355 
	C117.676086,90.943138 116.160835,89.917542 116.184891,88.929420 
	C116.403343,79.954605 116.866943,70.985176 117.310753,62.016731 
	C117.483353,58.528801 117.663040,55.031563 118.100555,51.571571 
	C118.256737,50.336517 119.183556,49.198906 119.758621,48.016815 
	C120.718933,49.001820 122.104866,49.821430 122.563416,51.001423 
	C124.248444,55.337540 125.625671,59.793266 127.250351,64.582596 
M134.048874,80.110016 
	C133.726471,79.660042 133.404068,79.210060 133.081665,78.760086 
	C132.875748,79.110550 132.419144,79.670197 132.507019,79.775482 
	C132.900818,80.247383 133.449585,80.589958 134.048874,80.110016 
z"/>
<path fill="#080808" opacity="1.000000" stroke="none" 
	d="
M267.555847,26.976269 
	C267.993317,27.348509 268.430756,27.720751 268.524109,28.563349 
	C268.624481,32.038960 269.069031,35.044212 269.513550,38.049469 
	C269.157928,38.773411 268.802307,39.497356 267.996826,40.545006 
	C265.420959,40.723267 263.294983,40.577824 260.970764,40.230675 
	C260.224518,39.910995 259.676453,39.793026 258.871735,39.421803 
	C253.764465,37.244793 248.913834,35.321033 243.913376,33.337852 
	C244.607788,29.818394 245.283310,26.394732 245.958817,22.971069 
	C245.958817,22.971069 246.000000,22.996395 246.236694,23.435543 
	C250.186539,23.883333 253.899658,23.891977 257.894928,24.067963 
	C260.781586,25.376720 263.386078,26.518137 266.516846,27.797876 
	C267.214020,27.616220 267.384949,27.296244 267.555847,26.976269 
z"/>
<path fill="#DFDFDF" opacity="1.000000" stroke="none" 
	d="
M143.625000,65.617172 
	C145.717361,60.353966 147.174408,55.168858 149.913483,50.784733 
	C152.551773,46.561939 156.393768,46.731934 158.897842,50.983425 
	C165.423416,62.062744 166.085876,73.970306 161.821777,85.927498 
	C160.077011,90.820076 155.523743,91.653549 151.182083,88.422722 
	C143.588104,82.771706 142.683380,74.671181 143.625000,65.617172 
M161.034149,75.167763 
	C161.023682,66.539284 160.756546,57.981293 154.748581,50.822903 
	C147.349792,56.861828 144.260437,70.280624 148.212753,79.357964 
	C149.232071,81.699066 151.020081,83.841202 152.868988,85.652031 
	C155.345779,88.077850 157.845535,87.548759 159.050049,84.255714 
	C160.006866,81.639885 160.355896,78.801735 161.034149,75.167763 
z"/>
<path fill="#E1E1E1" opacity="1.000000" stroke="none" 
	d="
M87.045578,79.299500 
	C86.663773,77.396973 86.349831,75.932976 85.971298,74.167786 
	C84.243683,74.167786 82.464554,74.167786 80.335106,74.167786 
	C78.781219,79.968582 77.174728,85.965744 75.568245,91.962914 
	C74.868118,91.831818 74.167992,91.700729 73.467865,91.569633 
	C73.467865,90.279732 73.283882,88.958664 73.496315,87.704758 
	C75.630402,75.108200 77.798187,62.517010 80.067230,49.944298 
	C80.258186,48.886223 81.251541,47.972961 81.872116,46.992424 
	C82.733673,47.847710 84.168510,48.586124 84.370293,49.575909 
	C87.142151,63.172318 89.744041,76.803375 92.489906,90.952751 
	C88.877228,90.130180 88.877228,90.130180 87.045578,79.299500 
M85.184486,68.683861 
	C84.628197,65.860489 84.071907,63.037113 83.515617,60.213737 
	C83.160355,60.279484 82.805092,60.345226 82.449829,60.410973 
	C81.906746,63.777771 81.363655,67.144569 80.629532,71.695709 
	C82.637779,70.783295 83.959320,70.182884 85.184486,68.683861 
z"/>
<path fill="#E2E2E2" opacity="1.000000" stroke="none" 
	d="
M59.755592,72.068825 
	C56.330048,72.693665 55.659321,74.657204 55.717068,77.482277 
	C55.788097,80.957100 55.555050,84.453728 55.190208,87.913170 
	C55.067440,89.077217 54.139713,90.156357 52.791866,90.741585 
	C52.791866,83.191666 52.805157,75.641708 52.787754,68.091827 
	C52.773258,61.800751 52.601280,55.507179 52.734875,49.219723 
	C52.811951,45.592243 54.280125,44.408661 58.176575,45.985645 
	C63.277073,48.049934 67.470245,50.511047 68.058342,56.519199 
	C68.724472,63.324505 65.923904,68.419022 59.755592,72.068825 
M62.859493,65.115440 
	C67.263359,56.473133 64.998871,51.028721 56.190727,49.267536 
	C56.190727,56.115974 56.190727,62.944344 56.190727,71.080688 
	C58.796528,68.835548 60.599106,67.282463 62.859493,65.115440 
z"/>
<path fill="#DDDDDD" opacity="1.000000" stroke="none" 
	d="
M193.261444,53.301170 
	C194.056824,46.441769 197.332458,45.143562 206.008942,47.806347 
	C206.093445,48.257301 206.177933,48.708260 206.262436,49.159214 
	C203.352982,49.561947 200.443542,49.964680 196.959686,50.446922 
	C196.591293,56.565681 196.205643,62.971001 195.814453,69.468353 
	C198.349075,69.953537 200.703156,70.404167 203.057251,70.854797 
	C203.044098,71.402237 203.030960,71.949684 203.017807,72.497124 
	C200.767975,72.789635 198.518127,73.082138 196.033936,73.405113 
	C196.033936,78.721596 196.033936,84.001801 196.033936,89.972931 
	C199.057709,89.972931 202.243256,89.972931 205.428802,89.972931 
	C205.537247,90.641579 205.645676,91.310226 205.754120,91.978874 
	C203.884918,92.309296 202.021774,92.880989 200.145462,92.928047 
	C192.356476,93.123383 192.244110,93.063362 192.379532,85.172012 
	C192.559265,74.699150 192.933472,64.229630 193.261444,53.301170 
z"/>
<path fill="#D8D8D8" opacity="1.000000" stroke="none" 
	d="
M186.937439,50.308327 
	C184.173981,50.432899 181.716202,50.303062 178.619537,50.139477 
	C178.619537,64.425804 178.619537,78.530830 178.619537,92.635864 
	C177.893829,92.649246 177.168121,92.662621 176.442429,92.676003 
	C175.717682,78.650085 174.852448,64.633034 175.330460,50.418880 
	C173.271698,50.141113 171.407944,49.889656 169.049423,49.571445 
	C169.641342,48.493610 169.934296,47.505341 170.219879,47.507465 
	C175.653397,47.547855 181.087555,47.672802 186.514389,47.931225 
	C186.790390,47.944374 187.001709,49.315216 186.937439,50.308327 
z"/>
<path fill="#D2D2D2" opacity="1.000000" stroke="none" 
	d="
M197.097839,112.557480 
	C197.054413,114.866447 197.001480,116.742249 196.948547,118.618042 
	C198.927032,118.100288 200.979553,117.768890 202.866043,117.019547 
	C205.466949,115.986427 207.942535,114.637741 210.471786,113.424217 
	C210.744263,113.960732 211.016739,114.497246 211.289215,115.033752 
	C207.907120,116.890755 204.645798,119.030464 201.114792,120.538895 
	C195.736801,122.836319 193.800751,121.271179 194.046173,115.340889 
	C194.072159,114.713081 194.049652,114.083275 194.049652,112.837227 
	C190.417450,114.430664 187.201324,116.063087 183.832840,117.270355 
	C177.931381,119.385452 177.105362,118.642982 178.004700,112.709221 
	C178.142670,111.798920 178.023941,110.849709 178.023941,109.146072 
	C174.084000,110.184166 170.721802,111.070023 166.922592,112.071030 
	C169.309814,108.343117 175.354324,105.745117 178.091888,107.713058 
	C179.940109,109.041702 180.488907,112.177902 182.023285,115.338409 
	C184.272919,114.372452 187.706146,112.650543 191.313599,111.453827 
	C193.117355,110.855453 195.605194,108.427727 197.097839,112.557480 
z"/>
<path fill="#DFDFDF" opacity="1.000000" stroke="none" 
	d="
M245.598373,22.858549 
	C245.283310,26.394732 244.607788,29.818394 243.913376,33.337852 
	C248.913834,35.321033 253.764465,37.244793 258.838074,39.953377 
	C258.868347,42.141663 258.675629,43.545120 258.128662,44.872475 
	C255.851654,43.811859 253.928925,42.827347 252.002396,41.514179 
	C251.923599,40.395576 251.848602,39.605629 251.760712,38.679958 
	C250.249283,39.250389 249.035202,39.708595 247.896286,40.087273 
	C247.971451,40.007740 247.840866,40.183205 247.957504,39.925179 
	C248.074142,39.033546 248.074142,38.399940 248.074142,37.766335 
	C247.811981,37.752640 247.549820,37.738949 247.287674,37.725254 
	C247.191101,38.455605 247.094543,39.185959 246.603607,39.912971 
	C244.369934,39.701401 242.530655,39.493160 240.691360,39.284924 
	C240.604721,39.759655 240.518066,40.234390 240.431412,40.709126 
	C243.952347,42.188744 247.473267,43.668362 250.996765,45.451828 
	C251.001846,46.160797 251.004333,46.565926 250.604355,46.950089 
	C248.473404,46.702408 246.744919,46.475693 244.743362,46.266094 
	C244.299957,46.217899 244.129639,46.152584 243.888748,45.679195 
	C242.599945,44.504444 241.381699,43.737766 240.395401,43.117054 
	C238.709183,46.480835 237.326859,49.238396 235.631042,51.998306 
	C234.899567,52.005836 234.481613,52.011021 234.063644,52.016205 
	C237.788406,42.259480 241.513168,32.502754 245.598373,22.858549 
M243.724457,35.996395 
	C243.984497,36.157391 244.244553,36.318390 244.504593,36.479382 
	C244.341064,36.220711 244.177536,35.962044 243.724457,35.996395 
z"/>
<path fill="#101010" opacity="1.000000" stroke="none" 
	d="
M220.051620,87.420578 
	C219.739624,87.339905 219.622864,87.143112 220.101898,86.489304 
	C220.948608,86.127426 221.394791,86.106445 222.012802,86.416641 
	C223.000854,88.632706 223.817047,90.517593 224.635406,92.401497 
	C229.863586,88.588402 230.897308,88.798920 233.665695,93.309052 
	C236.345642,94.083588 238.083588,94.585876 239.821533,95.088181 
	C239.144348,96.664139 238.467163,98.240097 237.739807,99.932777 
	C238.126968,99.999840 239.074341,100.163963 240.021729,100.328087 
	C238.564346,101.214470 237.106964,102.100845 235.395752,102.647408 
	C235.311478,102.055069 235.481033,101.802551 235.650604,101.550026 
	C235.301575,101.326904 234.895935,100.853439 234.611908,100.917671 
	C229.168442,102.148865 225.268005,98.767883 221.016602,96.438095 
	C220.824448,95.816147 220.632294,95.194206 220.599762,93.860092 
	C220.523453,91.238808 220.287537,89.329689 220.051620,87.420578 
z"/>
<path fill="#DDDDDD" opacity="1.000000" stroke="none" 
	d="
M240.281342,100.092377 
	C239.074341,100.163963 238.126968,99.999840 237.739807,99.932777 
	C238.467163,98.240097 239.144348,96.664139 239.821533,95.088181 
	C238.083588,94.585876 236.345642,94.083588 233.665695,93.309052 
	C230.897308,88.798920 229.863586,88.588402 224.635406,92.401497 
	C223.817047,90.517593 223.000854,88.632706 222.252151,86.270096 
	C222.554977,85.505936 222.790283,85.219498 223.374634,85.044846 
	C227.113571,86.451332 230.503479,87.746017 233.970886,89.411705 
	C236.035889,90.471291 238.023376,91.159866 240.289978,92.031075 
	C241.243256,93.070328 241.917450,93.926956 242.448135,94.601234 
	C245.002258,90.658401 247.513626,86.781586 250.038910,83.186401 
	C250.100693,83.649803 250.148544,83.831596 250.196396,84.013382 
	C247.364273,89.529938 246.838562,96.452095 240.281342,100.092377 
z"/>
<path fill="#EEEEEE" opacity="1.000000" stroke="none" 
	d="
M220.593628,96.102882 
	C225.268005,98.767883 229.168442,102.148865 234.611908,100.917671 
	C234.895935,100.853439 235.301575,101.326904 235.650604,101.550026 
	C235.481033,101.802551 235.311478,102.055069 235.039932,102.641365 
	C234.937958,102.975136 234.466339,103.096222 233.968475,103.086662 
	C233.311172,103.383820 233.151749,103.690536 232.992340,103.997246 
	C230.413651,105.428040 227.834488,106.857925 225.256470,108.289886 
	C222.412933,109.869347 220.802155,108.789909 220.536087,105.803047 
	C220.239502,102.473488 220.278015,99.114082 220.593628,96.102882 
z"/>
<path fill="#D6D6D6" opacity="1.000000" stroke="none" 
	d="
M233.848358,52.291218 
	C234.481613,52.011021 234.899567,52.005836 235.593155,52.357155 
	C231.270813,61.858639 226.672852,71.003632 222.010071,79.855721 
	C221.674225,79.052605 221.403183,78.542389 221.132141,78.032181 
	C225.299118,69.543526 229.466095,61.054878 233.848358,52.291218 
z"/>
<path fill="#DDDDDD" opacity="1.000000" stroke="none" 
	d="
M263.897278,53.998299 
	C259.994171,62.792595 256.091064,71.586891 251.770721,80.798813 
	C250.897690,81.157677 250.441864,81.098923 249.958801,80.664261 
	C253.980637,71.525528 258.029724,62.762718 262.381897,53.999619 
	C263.089081,53.998985 263.493164,53.998642 263.897278,53.998299 
z"/>
<path fill="#DFDFDF" opacity="1.000000" stroke="none" 
	d="
M264.095337,53.682178 
	C263.493164,53.998642 263.089081,53.998985 262.343567,53.750031 
	C261.982666,53.333523 261.963135,53.166317 262.077148,52.682770 
	C261.861115,52.101292 261.511566,51.836147 261.126770,51.430870 
	C261.091522,51.290733 260.993164,51.018978 260.993591,50.712891 
	C260.997620,49.998703 261.001190,49.590599 261.296082,49.125103 
	C262.338806,48.983635 263.090240,48.899563 264.114868,48.784927 
	C263.001740,47.861420 262.200043,47.196301 261.511505,46.064831 
	C261.422974,44.407578 261.221313,43.216675 261.008240,42.012135 
	C260.996826,41.998497 260.968658,41.976341 261.016296,41.590034 
	C261.098907,40.946609 261.133942,40.689499 261.168976,40.432384 
	C263.294983,40.577824 265.420959,40.723267 267.768402,40.640995 
	C268.330231,41.103291 269.127289,41.972031 268.938354,42.454880 
	C267.498383,46.134342 265.865936,49.738472 264.095337,53.682178 
z"/>
<path fill="#E8E8E8" opacity="1.000000" stroke="none" 
	d="
M108.447357,75.957886 
	C109.120590,76.844803 109.354568,77.757355 109.588539,78.669914 
	C105.358315,78.669914 101.128090,78.669914 96.897873,78.669914 
	C96.880211,77.774452 96.862556,76.878998 96.844902,75.983536 
	C100.565971,75.983536 104.287033,75.983536 108.447357,75.957886 
z"/>
<path fill="#CECECE" opacity="1.000000" stroke="none" 
	d="
M265.990601,27.659554 
	C263.386078,26.518137 260.781586,25.376720 258.009644,23.614286 
	C257.891998,22.685364 257.941772,22.377457 257.991577,22.069550 
	C260.580353,23.056740 263.169159,24.043928 265.893616,25.819401 
	C266.016418,26.958309 266.003510,27.308931 265.990601,27.659554 
z"/>
<path fill="#DFDFDF" opacity="1.000000" stroke="none" 
	d="
M257.599274,21.945538 
	C257.941772,22.377457 257.891998,22.685364 257.727539,23.446945 
	C253.899658,23.891977 250.186539,23.883333 246.218323,23.418770 
	C249.330063,18.828238 253.383240,21.455090 257.599274,21.945538 
z"/>
<path fill="#DFDFDF" opacity="1.000000" stroke="none" 
	d="
M269.874176,38.391159 
	C269.069031,35.044212 268.624481,32.038960 268.615875,28.761200 
	C272.869232,31.470905 273.174164,34.111469 269.874176,38.391159 
z"/>
<path fill="#EEEEEE" opacity="1.000000" stroke="none" 
	d="
M220.892761,78.343925 
	C221.403183,78.542389 221.674225,79.052605 221.974197,80.181755 
	C222.343948,82.178146 222.684784,83.555595 223.025604,84.933052 
	C222.790283,85.219498 222.554977,85.505936 222.080307,85.938919 
	C221.394791,86.106445 220.948608,86.127426 220.246185,86.363525 
	C219.415482,85.744347 218.222794,84.757904 218.383606,84.104553 
	C218.848267,82.216408 219.857803,80.462364 220.892761,78.343925 
z"/>
<path fill="#0E0E0E" opacity="1.000000" stroke="none" 
	d="
M249.986053,81.040176 
	C250.441864,81.098923 250.897690,81.157677 251.696686,81.164902 
	C251.636307,82.030090 251.232773,82.946815 250.512817,83.938461 
	C250.148544,83.831596 250.100693,83.649803 250.004913,82.876678 
	C249.966675,81.870293 249.976364,81.455231 249.986053,81.040176 
z"/>
<path fill="#EEEEEE" opacity="1.000000" stroke="none" 
	d="
M219.461655,87.246971 
	C220.287537,89.329689 220.523453,91.238808 220.638123,93.614075 
	C218.021317,92.787956 217.683121,91.347572 219.461655,87.246971 
z"/>
<path fill="#101010" opacity="1.000000" stroke="none" 
	d="
M233.197449,103.924950 
	C233.151749,103.690536 233.311172,103.383820 233.734741,103.154770 
	C233.860764,103.497490 233.661987,103.704231 233.197449,103.924950 
z"/>
<path fill="#DADADA" opacity="1.000000" stroke="none" 
	d="
M266.516846,27.797874 
	C266.003510,27.308931 266.016418,26.958309 266.083252,26.084167 
	C266.566406,25.791006 266.995575,26.021366 267.490295,26.613998 
	C267.384949,27.296244 267.214020,27.616220 266.516846,27.797874 
z"/>
<path fill="#010101" opacity="1.000000" stroke="none" 
	d="
M133.995651,80.544617 
	C133.449585,80.589958 132.900818,80.247383 132.507019,79.775482 
	C132.419144,79.670197 132.875748,79.110550 133.081665,78.760086 
	C133.404068,79.210060 133.726471,79.660042 133.995651,80.544617 
z"/>
<path fill="#DADADA" opacity="1.000000" stroke="none" 
	d="
M260.970764,40.230675 
	C261.133942,40.689499 261.098907,40.946609 260.900574,41.647873 
	C260.737274,42.092026 260.733063,42.428421 260.733063,42.428421 
	C260.733063,42.428421 261.019623,42.025772 261.019623,42.025772 
	C261.221313,43.216675 261.422974,44.407578 261.310059,45.988686 
	C260.995422,46.378891 260.759216,46.018677 260.727966,45.608765 
	C260.033875,45.137535 259.371063,45.076218 258.644958,45.021942 
	C258.581665,45.028992 258.482941,44.948578 258.482941,44.948578 
	C258.675629,43.545120 258.868347,42.141663 259.094727,40.206631 
	C259.676453,39.793026 260.224518,39.910995 260.970764,40.230675 
z"/>
<path fill="#070707" opacity="1.000000" stroke="none" 
	d="
M161.004456,75.615028 
	C160.355896,78.801735 160.006866,81.639885 159.050049,84.255714 
	C157.845535,87.548759 155.345779,88.077850 152.868988,85.652031 
	C151.020081,83.841202 149.232071,81.699066 148.212753,79.357964 
	C144.260437,70.280624 147.349792,56.861828 154.748581,50.822903 
	C160.756546,57.981293 161.023682,66.539284 161.004456,75.615028 
z"/>
<path fill="#1C1C1C" opacity="1.000000" stroke="none" 
	d="
M85.232674,69.133163 
	C83.959320,70.182884 82.637779,70.783295 80.629532,71.695709 
	C81.363655,67.144569 81.906746,63.777771 82.449829,60.410973 
	C82.805092,60.345226 83.160355,60.279484 83.515617,60.213737 
	C84.071907,63.037113 84.628197,65.860489 85.232674,69.133163 
z"/>
<path fill="#0A0A0A" opacity="1.000000" stroke="none" 
	d="
M62.630585,65.422409 
	C60.599106,67.282463 58.796528,68.835548 56.190727,71.080688 
	C56.190727,62.944344 56.190727,56.115974 56.190727,49.267536 
	C64.998871,51.028721 67.263359,56.473133 62.630585,65.422409 
z"/>
<path fill="#090909" opacity="1.000000" stroke="none" 
	d="
M223.374634,85.044846 
	C222.684784,83.555595 222.343948,82.178146 222.039001,80.474655 
	C226.672852,71.003632 231.270813,61.858639 235.906647,52.354805 
	C237.326859,49.238396 238.709183,46.480835 240.395401,43.117054 
	C241.381699,43.737766 242.599945,44.504444 243.671051,45.943264 
	C240.733124,52.040585 237.623306,57.329922 235.239487,62.928394 
	C232.756927,68.758720 230.974960,74.887367 228.574173,80.977524 
	C227.927902,81.708214 227.572433,82.337906 227.296112,83.000587 
	C227.270370,83.062363 227.745804,83.333115 227.988541,83.506844 
	C228.378937,82.717308 228.769348,81.927780 229.434189,80.928894 
	C231.545364,76.735703 233.435669,72.775505 235.207230,68.762886 
	C238.513397,61.274326 241.750565,53.755310 245.016449,46.248970 
	C246.744919,46.475693 248.473404,46.702408 250.827225,47.142128 
	C251.965744,47.641491 252.478928,47.927845 252.976074,48.600513 
	C249.677170,56.321007 246.269272,63.603310 243.190781,71.022301 
	C242.315170,73.132477 242.397995,75.640358 242.033112,77.991913 
	C242.024918,78.017975 241.989304,78.059425 241.675217,78.207870 
	C240.171127,80.599533 239.145706,82.953499 237.735855,85.048798 
	C236.720352,86.557968 235.192627,87.722466 233.893387,89.040695 
	C230.503479,87.746017 227.113571,86.451332 223.374634,85.044846 
z"/>
<path fill="#121212" opacity="1.000000" stroke="none" 
	d="
M244.743362,46.266090 
	C241.750565,53.755310 238.513397,61.274326 235.207230,68.762886 
	C233.435669,72.775505 231.545364,76.735703 229.364594,80.867142 
	C229.020569,81.014740 228.886642,80.885567 228.886658,80.885567 
	C230.974960,74.887367 232.756927,68.758720 235.239487,62.928394 
	C237.623306,57.329922 240.733124,52.040585 243.741608,46.351334 
	C244.129639,46.152584 244.299957,46.217899 244.743362,46.266090 
z"/>
<path fill="#1C1C1C" opacity="1.000000" stroke="none" 
	d="
M260.759216,46.018677 
	C260.759216,46.018677 260.995422,46.378891 261.196899,46.455032 
	C262.200043,47.196301 263.001740,47.861420 264.114868,48.784927 
	C263.090240,48.899563 262.338806,48.983635 260.963257,48.982876 
	C257.224182,47.648026 254.109192,46.398003 250.994202,45.147984 
	C247.473267,43.668362 243.952347,42.188744 240.431412,40.709126 
	C240.518066,40.234390 240.604721,39.759655 240.691360,39.284924 
	C242.530655,39.493160 244.369934,39.701401 246.792877,40.047432 
	C247.376541,40.185230 247.840866,40.183205 247.840866,40.183205 
	C247.840866,40.183205 247.971451,40.007740 248.125366,40.324150 
	C249.521591,41.041321 250.763885,41.442078 252.006195,41.842834 
	C253.928925,42.827347 255.851654,43.811859 258.128662,44.872475 
	C258.482941,44.948578 258.581665,45.028992 258.853333,45.232082 
	C259.669769,45.629673 260.214478,45.824177 260.759216,46.018677 
z"/>
<path fill="#DADADA" opacity="1.000000" stroke="none" 
	d="
M250.996765,45.451828 
	C254.109192,46.398003 257.224182,47.648026 260.671967,49.040272 
	C261.001190,49.590599 260.997620,49.998703 260.652222,50.707596 
	C259.240173,50.656178 258.169922,50.303963 256.893951,49.687943 
	C255.456192,49.020824 254.224136,48.617512 252.992096,48.214203 
	C252.478928,47.927845 251.965744,47.641491 251.229706,47.163094 
	C251.004333,46.565926 251.001846,46.160797 250.996765,45.451828 
z"/>
<path fill="#DADADA" opacity="1.000000" stroke="none" 
	d="
M252.002396,41.514183 
	C250.763885,41.442078 249.521591,41.041321 248.050201,40.403683 
	C249.035202,39.708595 250.249283,39.250389 251.760712,38.679958 
	C251.848602,39.605629 251.923599,40.395576 252.002396,41.514183 
z"/>
<path fill="#DADADA" opacity="1.000000" stroke="none" 
	d="
M247.957504,39.925179 
	C247.840866,40.183205 247.376541,40.185230 247.187256,40.050770 
	C247.094543,39.185959 247.191101,38.455605 247.287674,37.725254 
	C247.549820,37.738949 247.811981,37.752640 248.074142,37.766335 
	C248.074142,38.399940 248.074142,39.033546 247.957504,39.925179 
z"/>
<path fill="#DADADA" opacity="1.000000" stroke="none" 
	d="
M243.869232,35.849884 
	C244.177536,35.962044 244.341064,36.220711 244.504593,36.479385 
	C244.244553,36.318390 243.984497,36.157391 243.869232,35.849884 
z"/>
<path fill="#010101" opacity="1.000000" stroke="none" 
	d="
M257.099670,49.951744 
	C258.169922,50.303963 259.240173,50.656178 260.651794,51.013687 
	C260.993164,51.018978 261.091522,51.290733 261.163757,51.711761 
	C261.471893,52.421562 261.707764,52.710339 261.943634,52.999115 
	C261.963135,53.166317 261.982666,53.333523 262.040497,53.750320 
	C258.029724,62.762718 253.980637,71.525528 249.958801,80.664261 
	C249.976364,81.455231 249.966675,81.870293 249.990997,82.595062 
	C247.513626,86.781586 245.002258,90.658401 242.448135,94.601234 
	C241.917450,93.926956 241.243256,93.070328 240.218109,91.714134 
	C239.673096,89.621277 239.063293,87.941223 239.373825,86.453255 
	C239.969757,83.597725 241.087845,80.851181 241.989288,78.059425 
	C241.989304,78.059425 242.024918,78.017975 242.304962,77.792290 
	C246.292236,69.946754 249.947449,62.300831 253.746140,54.726864 
	C254.608673,53.007111 255.968658,51.536846 257.099670,49.951744 
z"/>
<path fill="#0E0E0E" opacity="1.000000" stroke="none" 
	d="
M241.675201,78.207870 
	C241.087845,80.851181 239.969757,83.597725 239.373825,86.453255 
	C239.063293,87.941223 239.673096,89.621277 239.939026,91.531502 
	C238.023376,91.159866 236.035889,90.471291 233.970886,89.411713 
	C235.192627,87.722466 236.720352,86.557968 237.735855,85.048798 
	C239.145706,82.953499 240.171127,80.599533 241.675201,78.207870 
z"/>
<path fill="#0E0E0E" opacity="1.000000" stroke="none" 
	d="
M262.077148,52.682774 
	C261.707764,52.710339 261.471893,52.421562 261.199036,51.851898 
	C261.511566,51.836147 261.861115,52.101292 262.077148,52.682774 
z"/>
<path fill="#DFDFDF" opacity="1.000000" stroke="none" 
	d="
M260.727966,45.608765 
	C260.214478,45.824177 259.669769,45.629673 258.916626,45.225037 
	C259.371063,45.076218 260.033875,45.137535 260.727966,45.608765 
z"/>
<path fill="#DFDFDF" opacity="1.000000" stroke="none" 
	d="
M261.008240,42.012135 
	C261.019623,42.025772 260.733063,42.428421 260.733063,42.428421 
	C260.733063,42.428421 260.737274,42.092026 260.852966,42.034184 
	C260.968658,41.976341 260.996826,41.998497 261.008240,42.012135 
z"/>
<path fill="#0E0E0E" opacity="1.000000" stroke="none" 
	d="
M256.893951,49.687939 
	C255.968658,51.536846 254.608673,53.007111 253.746140,54.726864 
	C249.947449,62.300831 246.292236,69.946754 242.313171,77.766228 
	C242.397995,75.640358 242.315170,73.132477 243.190781,71.022301 
	C246.269272,63.603310 249.677170,56.321007 252.976074,48.600513 
	C254.224136,48.617512 255.456192,49.020824 256.893951,49.687939 
z"/>
<path fill="#121212" opacity="1.000000" stroke="none" 
	d="
M229.090149,81.076492 
	C228.769348,81.927780 228.378937,82.717308 227.988541,83.506844 
	C227.745804,83.333115 227.270370,83.062363 227.296112,83.000587 
	C227.572433,82.337906 227.927902,81.708214 228.574158,80.977524 
	C228.886642,80.885567 229.020569,81.014740 229.090149,81.076492 
z"/>
</svg>