<svg version="1.1" id="Layer_1" xmlns="http://www.w3.org/2000/svg" xmlns:xlink="http://www.w3.org/1999/xlink" x="0px" y="0px"
	 width="100%" viewBox="0 0 323 162" enable-background="new 0 0 323 162" xml:space="preserve">
<path fill="none" opacity="1.000000" stroke="#000000" stroke-linecap="round" stroke-linejoin="round" stroke-width="3.000000"
	d="
M265.000000,56.500000 
	C272.326538,52.485828 273.136475,43.374763 266.488220,39.017990 
	C262.101074,36.143002 257.117859,34.727028 251.993454,34.049484 
	C246.272736,33.293095 242.490173,38.477753 242.994080,46.000397 
	C243.038544,46.664085 243.000000,47.333332 243.000000,47.777084 
	C249.386261,50.456936 255.670197,53.160152 262.009979,55.725342 
	C265.038208,56.950623 266.141815,59.390255 264.912384,61.958046 
	C258.471863,75.409576 252.662384,89.148392 246.189377,102.591194 
	C242.565506,110.117050 236.682800,113.268974 229.477173,114.899071 
	C224.135315,116.107529 221.249237,112.365570 219.808426,107.051949 
	C217.192993,97.406387 221.972458,90.080696 226.076859,82.541840 
	C231.018600,73.464958 234.945740,63.962902 239.000000,54.500000 
"/>
<path fill="none" opacity="1.000000" stroke="#000000" stroke-linecap="round" stroke-linejoin="round" stroke-width="3.000000"
	d="
M218.500000,122.500000 
	C213.160141,124.105080 208.546066,127.267685 203.492340,129.482513 
	C201.263443,130.459335 199.411682,133.269501 196.522736,131.463623 
	C193.643341,129.663681 195.346558,127.246284 195.954010,124.987633 
	C196.057983,124.600990 195.557449,124.051773 195.289642,123.477943 
	C189.586182,123.309097 185.416901,128.700775 179.436188,128.484360 
	C178.475708,127.455849 178.933182,126.122368 179.053467,125.005760 
	C179.582947,120.091011 178.285202,118.972977 173.501282,120.504028 
	C171.493561,121.146568 169.500000,121.833336 167.500000,122.500008 
"/>
<path fill="none" opacity="1.000000" stroke="#000000" stroke-linecap="round" stroke-linejoin="round" stroke-width="3.000000"
	d="
M177.000015,61.500000 
	C177.166672,75.166664 177.333344,88.833336 177.500015,102.500000 
"/>
<path fill="none" opacity="1.000000" stroke="#000000" stroke-linecap="round" stroke-linejoin="round" stroke-width="3.000000"
	d="
M136.000015,59.500004 
	C135.666687,60.833336 134.804596,62.290108 135.082550,63.480736 
	C137.602615,74.275330 133.974014,85.214165 135.945541,96.009949 
	C136.112045,96.921722 136.543808,98.146187 135.500000,99.000000 
"/>
<path fill="none" opacity="1.000000" stroke="#000000" stroke-linecap="round" stroke-linejoin="round" stroke-width="3.000000"
	d="
M120.000000,60.500000 
	C119.500000,67.666664 119.153709,74.848320 118.456825,81.995789 
	C117.757858,89.164658 117.026344,96.306816 118.000000,103.500000 
"/>
<path fill="none" opacity="1.000000" stroke="#000000" stroke-linecap="round" stroke-linejoin="round" stroke-width="3.000000"
	d="
M122.000000,67.000000 
	C125.418404,72.726868 126.196106,79.381401 128.364624,85.547607 
	C130.306503,91.069366 132.128342,96.497040 136.000000,101.000000 
"/>
<path fill="none" opacity="1.000000" stroke="#000000" stroke-linecap="round" stroke-linejoin="round" stroke-width="3.000000"
	d="
M205.500000,60.000000 
	C202.381332,61.078758 199.155701,60.125084 195.360809,60.709381 
	C194.697525,74.638344 193.419067,88.777534 194.256912,103.588821 
	C197.833328,103.274315 201.166672,103.975754 204.500000,103.000000 
"/>
<path fill="none" opacity="1.000000" stroke="#000000" stroke-linecap="round" stroke-linejoin="round" stroke-width="3.000000"
	d="
M53.500000,102.500000 
	C53.833332,92.500000 54.230656,82.501480 54.462528,72.499130 
	C54.535809,69.338028 54.024517,66.165901 54.041553,63.000225 
	C54.057350,60.065182 55.297684,58.882992 58.523685,59.926800 
	C62.706451,61.280182 65.831505,63.669559 66.402924,68.012772 
	C67.123558,73.490158 65.454552,78.210701 60.557114,81.582947 
	C58.922459,82.708527 57.474060,83.601822 55.500000,83.500000 
"/>
<path fill="none" opacity="1.000000" stroke="#000000" stroke-linecap="round" stroke-linejoin="round" stroke-width="2.000000"
	d="
M255.000000,60.500000 
	C251.639206,69.140152 247.019241,77.176323 242.938599,85.469788 
	C242.579193,86.200233 242.600693,86.816841 242.500000,87.500000 
"/>
<path fill="none" opacity="1.000000" stroke="#000000" stroke-linecap="round" stroke-linejoin="round" stroke-width="3.000000"
	d="
M82.000000,59.500000 
	C81.293068,65.799683 85.505013,70.882477 86.192924,76.978226 
	C87.154930,85.502808 89.422920,93.881371 90.000000,102.500000 
"/>
<path fill="none" opacity="1.000000" stroke="#000000" stroke-linecap="round" stroke-linejoin="round" stroke-width="3.000000"
	d="
M82.000000,67.500000 
	C80.095222,72.491547 80.436752,77.913795 79.011940,83.003342 
	C77.234268,89.353264 77.228783,96.215347 73.500000,102.000000 
"/>
<path fill="none" opacity="1.000000" stroke="#000000" stroke-linecap="round" stroke-linejoin="round" stroke-width="2.000000"
	d="
M232.500000,83.500000 
	C230.524719,88.828369 228.564926,94.163734 225.500000,99.000000 
"/>
<path fill="none" opacity="1.000000" stroke="#000000" stroke-linecap="round" stroke-linejoin="round" stroke-width="4.000000"
	d="
M109.500000,89.000000 
	C105.538330,90.086525 101.495407,89.223099 97.500000,89.500000 
"/>
<path fill="none" opacity="1.000000" stroke="#000000" stroke-linecap="round" stroke-linejoin="round" stroke-width="3.000000"
	d="
M241.500000,49.000000 
	C240.622620,50.133930 239.745255,51.267864 238.574615,52.780815 
	C246.239853,57.328274 255.018768,58.711956 262.500000,63.000000 
"/>
<path fill="none" opacity="1.000000" stroke="#000000" stroke-linecap="round" stroke-linejoin="round" stroke-width="3.000000"
	d="
M170.500000,61.000000 
	C175.833328,59.610195 181.166672,61.299717 186.500000,61.000000 
"/>
<path fill="none" opacity="1.000000" stroke="#000000" stroke-linecap="round" stroke-linejoin="round" stroke-width="3.000000"
	d="
M241.500000,108.500000 
	C241.166351,104.352295 238.571640,103.470604 234.575272,104.145203 
	C235.617233,100.940430 238.221771,98.699158 238.500000,95.500000 
"/>
<path fill="none" opacity="1.000000" stroke="#000000" stroke-linecap="round" stroke-linejoin="round" stroke-width="3.000000"
	d="
M234.000000,103.000000 
	C231.759735,100.225891 229.138809,99.481941 225.930008,101.639641 
	C224.499435,99.234009 222.877594,97.113556 220.000000,96.500000 
"/>
<path fill="none" opacity="1.000000" stroke="#000000" stroke-linecap="round" stroke-linejoin="round" stroke-width="4.000000"
	d="
M202.500000,83.500000 
	C200.000000,83.500000 197.500000,83.500000 195.000000,83.500000 
"/>
<path fill="none" opacity="1.000000" stroke="#000000" stroke-linecap="round" stroke-linejoin="round" stroke-width="2.000000"
	d="
M245.000000,56.500000 
	C244.532120,57.845375 243.180450,58.859333 243.500000,60.500000 
"/>
<path fill="none" opacity="1.000000" stroke="#000000" stroke-linecap="round" stroke-linejoin="round" stroke-width="3.000000"
	d="
M154.000000,61.500000 
	C144.006302,69.322594 141.770630,87.178253 149.455109,96.536858 
	C151.502960,99.030861 153.746780,101.136978 156.974960,100.391579 
	C160.270309,99.630676 161.488266,96.303246 161.885056,93.483826 
	C163.122314,84.692322 163.137451,75.922318 159.545944,67.480453 
	C158.443634,64.889435 157.580582,62.321739 154.500000,61.500000 
"/>
</svg>